<svg xmlns="http://www.w3.org/2000/svg" width="512" height="512" viewBox="0 0 512 512">
  <defs>
    <linearGradient id="bg" x1="0%" y1="0%" x2="100%" y2="100%">
      <stop offset="0%" stop-color="#f5f5f7"/>
      <stop offset="100%" stop-color="#e1e1e6"/>
    </linearGradient>
  </defs>
  <rect width="512" height="512" rx="112" ry="112" fill="url(#bg)"/>
  <g transform="translate(256 256)">
    <path d="M0 0 L0 -160 A160 160 0 0 1 138.6 -80 z" fill="#f5b800"/>
    <path d="M0 0 L138.6 -80 A160 160 0 0 1 138.6 80 z" fill="#ff3b30"/>
    <path d="M0 0 L138.6 80 A160 160 0 0 1 0 160 z" fill="#af52de"/>
    <path d="M0 0 L0 160 A160 160 0 0 1 -138.6 80 z" fill="#5856d6"/>
    <path d="M0 0 L-138.6 80 A160 160 0 0 1 -138.6 -80 z" fill="#34c759"/>
    <path d="M0 0 L-138.6 -80 A160 160 0 0 1 0 -160 z" fill="#007aff"/>
  </g>
  <circle cx="256" cy="256" r="48" fill="#ffffff"/>
</svg>